<?xml version="1.0" standalone="no"?>
<!DOCTYPE svg PUBLIC "-//W3C//DTD SVG 20010904//EN"
 "http://www.w3.org/TR/2001/REC-SVG-20010904/DTD/svg10.dtd">
<svg version="1.0" xmlns="http://www.w3.org/2000/svg"
 width="800.000000pt" height="800.000000pt" viewBox="0 0 800.000000 800.000000"
 preserveAspectRatio="xMidYMid meet">
<metadata>
Created by potrace 1.14, written by Peter Selinger 2001-2017
</metadata>
<g transform="translate(0.000000,800.000000) scale(0.100000,-0.100000)"
fill="#000000" stroke="none">
<path d="M3688 7620 c-2 -4 -30 -11 -63 -14 -33 -3 -72 -8 -86 -11 -14 -2 -43
-6 -66 -8 -22 -2 -45 -7 -50 -10 -6 -4 -26 -6 -45 -5 -19 1 -41 -2 -48 -7 -21
-13 -144 -42 -165 -39 -11 2 -24 -1 -30 -6 -7 -5 -20 -11 -31 -13 -10 -2 -37
-9 -59 -15 -22 -6 -42 -11 -45 -11 -3 0 -42 -14 -87 -30 -46 -16 -83 -28 -83
-25 0 3 -9 0 -21 -6 -11 -6 -28 -13 -37 -15 -18 -3 -189 -70 -257 -101 -22
-10 -42 -18 -45 -19 -3 -1 -31 -13 -64 -28 -32 -15 -62 -27 -67 -27 -5 0 -9
-4 -9 -9 0 -5 -8 -11 -17 -14 -36 -12 -196 -106 -262 -154 -13 -10 -26 -16
-29 -15 -3 2 -8 -2 -13 -10 -5 -7 -12 -13 -16 -13 -10 0 -77 -47 -81 -57 -2
-4 -12 -8 -23 -8 -10 0 -19 -4 -19 -9 0 -5 -22 -23 -49 -41 -28 -17 -65 -44
-83 -60 -18 -16 -37 -26 -42 -23 -5 3 -6 1 -2 -5 4 -7 3 -12 -2 -12 -5 0 -27
-17 -50 -37 -23 -21 -67 -60 -98 -88 -137 -122 -384 -384 -384 -408 0 -6 -3
-8 -6 -4 -4 3 -17 -10 -30 -29 -29 -42 -44 -60 -67 -82 -9 -9 -17 -22 -17 -29
0 -7 -4 -13 -9 -13 -7 0 -127 -176 -167 -245 -6 -11 -35 -60 -64 -110 -28 -49
-51 -90 -50 -90 1 0 -22 -50 -52 -110 -49 -103 -87 -188 -88 -200 -1 -2 -8
-22 -17 -42 -33 -80 -36 -88 -39 -103 -2 -8 -7 -23 -12 -35 -32 -69 -99 -306
-109 -387 -3 -21 -9 -38 -13 -38 -5 0 -8 -15 -7 -32 0 -18 -2 -44 -5 -58 -17
-71 -27 -119 -32 -160 -3 -25 -8 -55 -10 -66 -25 -126 -27 -802 -3 -841 3 -5
8 -33 11 -63 3 -30 8 -64 10 -75 16 -86 20 -111 21 -120 0 -5 4 -16 8 -22 5
-7 6 -13 3 -13 -2 0 2 -24 10 -52 8 -29 17 -64 20 -76 11 -54 33 -132 59 -207
15 -44 28 -84 30 -90 2 -12 7 -25 48 -130 17 -44 48 -120 70 -170 46 -105 59
-139 57 -144 -1 -2 2 -7 7 -10 10 -7 48 -75 44 -79 -1 -1 19 -40 46 -85 26
-45 47 -84 48 -87 0 -3 10 -20 23 -38 13 -17 20 -32 15 -32 -4 0 -3 -4 2 -8 6
-4 24 -27 40 -52 45 -68 128 -183 142 -198 7 -7 13 -17 13 -20 0 -4 10 -18 23
-32 12 -14 40 -48 61 -75 22 -28 46 -56 55 -62 8 -7 12 -13 8 -13 -12 0 46
-62 208 -224 151 -151 224 -217 323 -291 28 -21 52 -43 52 -48 0 -4 4 -6 8 -3
5 3 20 -6 35 -20 15 -14 27 -22 27 -19 0 4 7 0 15 -7 33 -30 45 -38 55 -38 5
0 10 -4 10 -10 0 -5 6 -10 13 -10 7 0 23 -9 35 -20 12 -11 26 -20 32 -20 5 0
10 -4 10 -9 0 -5 13 -14 29 -21 16 -6 37 -19 48 -28 10 -9 50 -33 88 -52 39
-19 78 -42 89 -50 10 -8 20 -14 22 -12 6 4 118 -51 125 -61 3 -5 8 -8 10 -7
11 5 59 -14 59 -23 0 -6 3 -7 7 -4 3 4 12 2 20 -4 7 -6 13 -8 13 -5 0 4 10 0
22 -8 12 -9 28 -16 35 -16 7 0 32 -9 56 -19 107 -50 407 -140 549 -166 15 -3
38 -9 52 -15 15 -5 26 -7 26 -4 0 4 6 1 13 -5 8 -6 16 -8 19 -6 3 3 25 1 49
-4 24 -5 71 -13 104 -16 33 -4 68 -9 78 -11 81 -15 253 -26 412 -26 186 -1
228 2 390 23 44 6 98 12 120 13 22 1 45 4 50 8 6 3 33 8 60 12 28 3 59 8 70
10 11 2 65 14 120 26 55 12 105 23 110 24 6 1 16 5 23 10 7 4 16 5 19 2 3 -3
11 -2 17 3 7 6 23 12 36 14 14 3 59 17 100 32 41 15 91 31 110 37 19 6 40 13
45 16 6 4 12 7 15 8 3 0 14 4 25 9 11 4 49 19 85 33 124 47 232 102 498 252
33 19 115 73 122 80 3 3 30 21 60 40 30 19 57 37 60 40 3 4 34 27 70 52 36 26
78 58 93 72 15 14 27 23 27 21 0 -2 10 6 23 18 13 12 59 54 103 93 106 96 209
199 264 264 25 30 55 64 67 77 11 13 35 42 53 63 18 21 42 50 53 64 39 44 83
100 103 131 10 17 23 35 29 41 5 6 17 22 25 34 8 12 25 34 37 48 13 15 23 30
23 34 0 16 85 138 97 138 7 0 10 6 7 14 -3 7 6 36 19 62 13 27 44 90 69 139
54 107 68 138 103 230 15 39 31 79 35 90 35 80 94 257 90 267 -1 2 4 17 10 33
13 34 44 152 54 205 3 19 8 44 10 55 7 34 35 178 42 210 42 219 49 695 14 954
-5 36 -7 68 -4 72 2 4 0 10 -5 14 -5 3 -9 13 -9 23 0 9 -7 53 -17 97 -10 44
-19 89 -21 100 -1 11 -7 35 -13 53 -5 17 -7 32 -4 32 3 0 1 6 -5 13 -7 7 -13
29 -14 48 -2 19 -6 36 -10 39 -4 3 -9 17 -12 30 -7 35 -35 131 -46 155 -5 11
-18 47 -30 80 -11 33 -24 69 -29 80 -52 121 -71 170 -71 181 0 8 -4 14 -9 14
-10 0 -27 39 -23 53 1 4 -3 7 -8 7 -6 0 -10 9 -10 20 0 11 -3 20 -7 20 -5 0
-21 29 -38 65 -16 36 -34 65 -38 65 -5 0 -6 4 -3 8 3 5 -4 18 -14 30 -11 12
-20 26 -20 31 0 6 -10 25 -22 44 -13 19 -34 53 -48 76 -14 23 -35 54 -47 69
-13 15 -23 31 -23 35 0 4 -8 17 -18 28 -11 10 -25 32 -33 47 -8 15 -17 29 -20
32 -11 8 -79 100 -79 106 0 2 -10 15 -22 28 -13 13 -33 36 -46 52 -66 84 -171
193 -307 319 -47 44 -102 95 -121 113 -19 18 -34 30 -34 27 0 -2 -10 4 -22 14
-49 42 -67 57 -88 71 -12 8 -28 20 -34 26 -6 6 -74 53 -151 105 -77 51 -143
98 -146 102 -3 5 -9 8 -13 8 -6 -2 -97 49 -106 59 -3 3 -43 24 -90 48 -47 23
-92 46 -100 51 -14 8 -32 16 -120 54 -19 9 -60 25 -90 37 -30 12 -66 27 -80
33 -14 6 -27 11 -30 11 -3 1 -11 5 -17 9 -7 5 -13 6 -13 3 0 -2 -24 5 -52 16
-29 10 -58 20 -65 22 -7 1 -16 5 -19 9 -4 4 -17 7 -29 7 -11 0 -26 5 -33 12
-7 7 -12 9 -12 5 0 -3 -19 1 -42 9 -49 18 -49 18 -100 29 -21 4 -38 10 -38 14
0 3 -10 6 -22 7 -13 0 -34 3 -48 7 -14 3 -45 10 -70 16 -25 5 -58 12 -75 15
-16 3 -41 8 -55 11 -50 11 -156 26 -214 31 -33 3 -67 9 -75 13 -21 10 -619 11
-623 1z m548 -514 c11 -2 45 -7 75 -10 30 -3 65 -8 79 -10 31 -6 141 -25 177
-32 166 -30 401 -101 598 -181 96 -39 402 -190 430 -213 6 -4 28 -18 50 -30
89 -49 288 -199 419 -315 37 -32 76 -65 87 -73 10 -7 19 -17 19 -23 0 -5 -441
-9 -1164 -9 l-1163 0 -75 -122 c-204 -332 -235 -384 -240 -399 -6 -15 80 -16
1005 -18 557 -2 1063 -5 1126 -8 69 -2 118 0 124 6 5 5 19 6 31 2 11 -5 44 -6
71 -4 28 2 57 3 65 2 8 -1 165 -3 349 -4 317 -1 334 -2 348 -21 65 -87 228
-388 219 -403 -3 -4 -807 -7 -1788 -7 -981 1 -1795 -1 -1809 -2 -18 -3 -31
-14 -42 -35 -8 -18 -80 -138 -160 -267 -80 -129 -144 -237 -142 -240 2 -3 784
-5 1739 -5 l1736 1 -6 -20 c-6 -19 -52 -95 -294 -486 -43 -69 -104 -169 -136
-223 -75 -125 -124 -205 -209 -342 -66 -108 -190 -310 -210 -343 -5 -9 -37
-60 -69 -112 -32 -52 -99 -160 -149 -240 -49 -80 -103 -168 -121 -195 -35 -56
-45 -73 -79 -130 -13 -22 -66 -107 -117 -190 -51 -82 -101 -166 -112 -185 -11
-19 -43 -71 -71 -115 -27 -44 -57 -91 -66 -105 -8 -14 -24 -41 -35 -60 -10
-19 -49 -82 -86 -140 -37 -58 -82 -130 -99 -160 -18 -30 -50 -84 -73 -120 -22
-36 -46 -74 -52 -85 -6 -11 -23 -38 -37 -60 -14 -22 -52 -83 -84 -135 -31 -52
-70 -114 -86 -137 -16 -23 -29 -44 -29 -47 0 -4 -24 -44 -54 -89 l-53 -83
-149 4 c-271 7 -331 12 -454 37 -14 2 -50 10 -80 16 -30 5 -68 14 -85 19 -16
5 -46 12 -65 15 -19 3 -40 10 -46 16 -7 5 -16 9 -20 8 -14 -4 -97 22 -111 33
-7 6 -13 8 -13 4 0 -6 -150 47 -250 89 -166 70 -497 250 -508 277 -2 4 -8 8
-13 8 -8 0 -114 74 -129 90 -3 3 -17 15 -31 26 -64 49 -130 114 -124 123 3 6
43 -8 94 -33 49 -24 99 -46 112 -51 13 -4 26 -8 29 -9 48 -20 192 -59 260 -71
152 -28 407 -28 530 0 14 3 41 8 60 11 121 20 362 123 493 211 184 124 366
326 459 511 23 45 44 82 47 82 4 0 7 8 8 18 0 9 15 55 31 102 29 80 52 156 58
190 1 8 5 35 9 60 3 25 9 56 11 70 5 27 5 239 -1 280 -12 95 -18 131 -40 215
-33 126 -120 345 -137 345 -5 0 -8 5 -8 11 0 13 -69 114 -133 197 -144 183
-402 363 -634 441 -66 22 -193 55 -258 67 -51 10 -375 11 -435 2 -117 -17
-272 -68 -415 -137 -44 -21 -83 -37 -87 -34 -5 2 8 30 29 61 20 31 55 86 78
122 23 36 92 151 154 255 63 105 117 192 120 195 4 3 10 12 14 20 4 8 11 22
17 30 26 42 110 182 110 185 0 3 44 75 99 162 54 87 133 215 176 286 65 105
82 127 102 127 20 0 22 3 13 20 -14 25 35 120 62 120 11 0 15 5 12 14 -6 17
22 76 36 76 6 0 10 7 10 15 0 8 20 46 45 85 25 39 45 72 45 75 0 2 11 21 25
42 40 60 39 58 157 255 261 434 489 805 513 836 8 9 51 11 180 7 94 -3 179 -7
191 -9z m-1162 -183 c-15 -27 -78 -129 -139 -228 -62 -99 -138 -223 -169 -275
-60 -100 -62 -103 -113 -186 -18 -29 -33 -58 -33 -64 0 -5 -4 -10 -10 -10 -5
0 -10 -4 -10 -10 0 -12 -102 -174 -112 -178 -5 -2 -8 -7 -8 -12 0 -6 -131
-226 -257 -430 -106 -172 -221 -360 -285 -465 -40 -66 -76 -121 -80 -123 -4
-2 -8 -8 -8 -13 0 -5 -52 -93 -115 -195 -63 -102 -115 -189 -115 -194 0 -5 -4
-10 -8 -12 -4 -1 -17 -19 -29 -38 -64 -108 -293 -482 -398 -650 -67 -107 -152
-246 -189 -307 -37 -62 -71 -113 -77 -113 -5 0 -9 1 -9 3 0 2 -4 28 -10 58 -5
30 -12 81 -15 114 -2 33 -7 74 -11 90 -3 17 -6 145 -7 285 -1 248 4 288 33
310 3 3 55 84 114 180 134 216 182 292 195 307 6 7 11 16 11 22 0 5 3 11 8 13
4 2 14 15 22 30 42 77 195 323 202 326 4 2 8 9 8 15 0 6 11 27 24 46 54 83
126 200 156 256 18 33 44 78 59 100 14 22 32 52 40 67 8 15 21 36 30 46 9 10
27 39 41 65 14 26 34 57 45 70 11 12 29 39 39 60 10 22 25 47 34 56 37 39 54
65 65 95 9 26 68 127 94 161 5 6 14 22 22 37 8 15 22 36 31 45 9 10 18 23 20
28 4 12 52 88 60 95 3 3 32 47 64 98 32 51 65 99 72 107 8 7 14 17 15 22 1 22
155 111 319 184 85 37 391 158 403 159 5 0 -4 -21 -19 -47z m4025 -2378 c6
-38 13 -86 17 -105 4 -19 9 -164 11 -321 l5 -287 -35 -48 c-34 -47 -328 -524
-485 -784 -41 -69 -83 -136 -92 -150 -10 -14 -28 -43 -41 -66 -22 -37 -113
-182 -256 -407 -28 -45 -98 -158 -155 -250 -57 -92 -120 -194 -140 -225 -21
-31 -41 -64 -45 -72 -4 -8 -45 -74 -93 -146 -47 -73 -122 -190 -167 -261 l-83
-128 -162 -82 c-228 -115 -522 -229 -548 -213 -7 4 14 45 58 111 38 57 120
187 182 289 62 102 157 256 211 342 55 87 99 162 99 168 0 5 5 10 10 10 6 0
10 4 10 10 0 8 86 148 108 175 4 6 11 18 15 27 10 28 179 293 188 296 5 2 9 8
9 14 0 10 147 257 159 268 6 5 13 16 45 75 6 10 17 25 24 33 6 7 12 17 12 21
0 4 8 17 18 29 9 12 35 53 57 92 22 38 46 70 53 70 7 0 11 4 8 9 -10 16 5 41
24 41 12 0 26 17 41 48 13 26 29 53 36 60 7 7 13 20 13 27 0 8 9 19 20 25 11
6 20 21 20 33 0 13 4 27 9 32 6 6 23 37 39 70 33 65 63 105 80 105 6 0 9 7 6
15 -3 8 6 26 20 40 14 14 26 30 26 34 0 5 11 12 25 15 23 6 24 9 18 51 -4 31
-2 45 6 45 6 0 11 4 11 9 0 4 20 39 45 77 25 37 45 74 45 81 0 7 4 13 9 13 5
0 13 10 16 21 4 12 27 52 51 90 24 37 44 72 44 78 0 6 5 11 10 11 6 0 10 7 10
15 0 8 5 15 10 15 6 0 9 3 8 8 -2 4 19 41 46 82 27 41 53 85 59 97 6 13 14 23
19 23 4 0 8 5 8 10 0 6 24 47 53 93 29 45 75 117 102 160 31 50 51 73 56 65 4
-7 12 -44 18 -83z m-4204 -836 c33 -6 65 -11 70 -13 6 -2 24 -6 40 -11 208
-54 423 -241 519 -449 54 -117 80 -292 66 -446 -16 -173 -132 -396 -276 -531
-71 -67 -227 -157 -302 -174 -9 -3 -37 -9 -62 -16 -25 -6 -56 -13 -70 -16 -44
-9 -181 -10 -224 -2 -22 4 -59 10 -81 13 -22 4 -44 11 -49 16 -6 6 -20 10 -33
10 -12 0 -48 11 -79 25 -144 64 -301 200 -371 323 -36 63 -81 163 -87 193 -1
8 -8 41 -16 74 -22 102 -18 270 10 382 23 95 114 276 165 329 5 6 27 29 47 52
112 124 329 233 496 248 31 3 58 7 59 8 5 4 120 -5 178 -15z"/>
<path d="M4084 4239 c-3 -6 18 -35 48 -66 83 -87 83 -87 145 -170 145 -192
248 -396 306 -608 50 -179 57 -235 62 -473 2 -90 6 -166 8 -169 6 -6 58 71
157 232 41 66 77 122 81 125 3 3 14 20 23 38 27 52 148 237 157 240 5 2 9 8 9
13 0 6 35 66 78 135 42 69 84 137 92 152 8 15 18 29 23 30 4 2 7 10 7 17 0 7
3 15 8 17 4 2 41 59 82 128 41 69 77 127 80 130 3 3 10 14 17 25 6 11 35 57
62 103 28 46 51 90 51 98 0 13 -99 14 -745 14 -481 -1 -747 -5 -751 -11z"/>
</g>
</svg>
